<svg width="114" height="108" viewBox="0 0 114 108" fill="none" xmlns="http://www.w3.org/2000/svg">
<path d="M57.0937 107.513C46.4155 107.513 36.7852 105.242 28.2027 100.698C19.6202 96.0551 12.884 89.6839 7.99395 81.584C3.10394 73.3853 0.658936 64.2482 0.658936 54.1728C0.658936 44.0973 3.10394 35.0096 7.99395 26.9097C12.884 18.7111 19.6202 12.3398 28.2027 7.79596C36.7852 3.15334 46.4155 0.832031 57.0937 0.832031C67.7719 0.832031 77.4022 3.15334 85.9847 7.79596C94.5671 12.3398 101.303 18.6617 106.193 26.7616C111.083 34.8614 113.528 43.9985 113.528 54.1728C113.528 64.347 111.083 73.4841 106.193 81.584C101.303 89.6839 94.5671 96.0551 85.9847 100.698C77.4022 105.242 67.7719 107.513 57.0937 107.513ZM57.0937 90.6223C64.0794 90.6223 70.3666 89.0912 75.9551 86.029C81.5437 82.8681 85.9348 78.5218 89.1282 72.9902C92.3217 67.3598 93.9185 61.0873 93.9185 54.1728C93.9185 47.2582 92.3217 41.0351 89.1282 35.5035C85.9348 29.8731 81.5437 25.5268 75.9551 22.4647C70.3666 19.3037 64.0794 17.7233 57.0937 17.7233C50.1079 17.7233 43.8208 19.3037 38.2322 22.4647C32.6436 25.5268 28.2526 29.8731 25.0591 35.5035C21.8656 41.0351 20.2689 47.2582 20.2689 54.1728C20.2689 61.0873 21.8656 67.3598 25.0591 72.9902C28.2526 78.5218 32.6436 82.8681 38.2322 86.029C43.8208 89.0912 50.1079 90.6223 57.0937 90.6223Z" fill="#1E1A1B"/>
</svg>
