<svg width="86" height="108" viewBox="0 0 86 108" fill="none" xmlns="http://www.w3.org/2000/svg">
<path d="M65.066 51.6348C71.3175 53.6132 76.1798 56.828 79.6529 61.2792C83.2253 65.6316 85.0114 70.7753 85.0114 76.7103C85.0114 82.9421 82.9772 88.3826 78.9087 93.0317C74.8402 97.5819 69.3825 101.093 62.5356 103.566C55.7878 106.039 48.3951 107.276 40.3574 107.276C33.4112 107.276 26.4154 106.336 19.37 104.457C12.4238 102.478 5.97383 99.5602 0.0199585 95.7024L6.27152 81.6067C10.8362 84.6732 15.8969 87.0472 21.4539 88.7288C27.0108 90.3115 32.5182 91.1028 37.9759 91.1028C45.8151 91.1028 52.3148 89.5696 57.4748 86.5031C62.734 83.4367 65.3637 79.2327 65.3637 73.8912C65.3637 69.341 63.4783 65.8789 59.7075 63.5049C55.9367 61.1309 50.7271 59.9439 44.0786 59.9439H19.8166V44.8095H42.5901C48.3455 44.8095 52.8605 43.6225 56.1352 41.2485C59.4098 38.8745 61.0471 35.6597 61.0471 31.6041C61.0471 26.7571 58.8144 22.9983 54.349 20.3275C49.9828 17.6567 44.3763 16.3213 37.5293 16.3213C32.8655 16.3213 28.0528 17.0138 23.0912 18.3986C18.1296 19.6845 13.4658 21.6134 9.09961 24.1853L2.99689 8.6058C8.35537 5.73721 14.0115 3.61049 19.9654 2.22564C26.0185 0.741882 32.022 0 37.9759 0C45.7159 0 52.8109 1.18701 59.2609 3.56103C65.8102 5.93504 71.0198 9.34769 74.8898 13.799C78.7599 18.1513 80.6949 23.295 80.6949 29.23C80.6949 34.3737 79.3056 38.8745 76.5272 42.7323C73.7487 46.59 69.9283 49.5575 65.066 51.6348Z" fill="#F17110"/>
</svg>
