<svg width="88" height="104" viewBox="0 0 88 104" fill="none" xmlns="http://www.w3.org/2000/svg">
<path d="M43.078 0.736328C52.1183 0.736328 59.9664 2.2078 66.6224 5.15074C73.3778 8.09367 78.5437 12.3119 82.12 17.8054C85.6964 23.2988 87.4846 29.8224 87.4846 37.3759C87.4846 44.8313 85.6964 51.3548 82.12 56.9464C78.5437 62.4399 73.3778 66.6581 66.6224 69.601C59.9664 72.544 52.1183 74.0154 43.078 74.0154H19.5337V103.739H0.161682V0.736328H43.078ZM42.184 57.8293C50.6281 57.8293 57.0358 56.0635 61.4069 52.532C65.778 49.0005 67.9636 43.9484 67.9636 37.3759C67.9636 30.8033 65.778 25.7513 61.4069 22.2198C57.0358 18.6882 50.6281 16.9225 42.184 16.9225H19.5337V57.8293H42.184Z" fill="#F17110"/>
</svg>
