<svg width="112" height="108" viewBox="0 0 112 108" fill="none" xmlns="http://www.w3.org/2000/svg">
<path d="M56.1245 107.528C45.5929 107.528 36.0947 105.253 27.6301 100.704C19.1654 96.0557 12.5216 89.6765 7.6987 81.5666C2.8758 73.3578 0.464355 64.2095 0.464355 54.1215C0.464355 44.0336 2.8758 34.9347 7.6987 26.8248C12.5216 18.616 19.1654 12.2368 27.6301 7.68738C36.0947 3.03902 45.5929 0.714844 56.1245 0.714844C66.6562 0.714844 76.1543 3.03902 84.619 7.68738C93.0837 12.2368 99.7275 18.5665 104.55 26.6764C109.373 34.7863 111.785 43.9347 111.785 54.1215C111.785 64.3084 109.373 73.4567 104.55 81.5666C99.7275 89.6765 93.0837 96.0557 84.619 100.704C76.1543 105.253 66.6562 107.528 56.1245 107.528ZM56.1245 90.6161C63.0144 90.6161 69.2152 89.0831 74.7271 86.0172C80.239 82.8523 84.5698 78.5007 87.7194 72.9622C90.8691 67.3248 92.4439 61.0446 92.4439 54.1215C92.4439 47.1984 90.8691 40.9677 87.7194 35.4292C84.5698 29.7918 80.239 25.4402 74.7271 22.3742C69.2152 19.2094 63.0144 17.627 56.1245 17.627C49.2347 17.627 43.0338 19.2094 37.5219 22.3742C32.01 25.4402 27.6793 29.7918 24.5296 35.4292C21.38 40.9677 19.8052 47.1984 19.8052 54.1215C19.8052 61.0446 21.38 67.3248 24.5296 72.9622C27.6793 78.5007 32.01 82.8523 37.5219 86.0172C43.0338 89.0831 49.2347 90.6161 56.1245 90.6161Z" fill="black"/>
</svg>
