<svg width="452" height="2735" viewBox="0 0 452 2735" fill="none" xmlns="http://www.w3.org/2000/svg">
<path d="M90 220L378 0L452 130L330 220L452 336L330 408L452 510L330 598L452 718L327.5 810.5L415 964L276.5 1066.5L167.5 966.5L226.5 921.5L90 798L224 706L90 576L210 500L74 398L210 316L90 220Z" fill="#F17110"/>
<path d="M53 1054L341 834L415 964L293 1054L415 1170L293 1242L415 1344L293 1432L415 1552L290.5 1644.5L378 1798L239.5 1900.5L130.5 1800.5L189.5 1755.5L53 1632L187 1540L53 1410L173 1334L37 1232L173 1150L53 1054Z" fill="#F17110"/>
<path d="M16 1888L304 1668L378 1798L256 1888L378 2004L256 2076L378 2178L256 2266L378 2386L253.5 2478.5L341 2632L202.5 2734.5L93.5 2634.5L152.5 2589.5L16 2466L150 2374L16 2244L136 2168L0 2066L136 1984L16 1888Z" fill="#F17110"/>
</svg>
