<svg width="114" height="184" viewBox="0 0 114 184" fill="none" xmlns="http://www.w3.org/2000/svg">
<path d="M53.0479 30.1093C53.0479 30.1093 53.1885 27.2265 56.9595 26.7986C60.7306 26.3707 60.7998 25.1386 60.7998 25.1386C60.7998 25.1386 60.7989 23.4439 56.9227 23.4417C53.0464 23.4395 53.0431 21.8073 53.0431 21.8073C53.0431 21.8073 53.1144 20.0526 56.9207 20.0548C60.7269 20.0569 60.796 18.4572 60.796 18.4572C60.796 18.4572 60.7951 16.795 56.9189 16.7603C53.0425 16.7257 53.0393 15.0658 53.0393 15.0658C53.0393 15.0658 53.0384 13.4336 56.9169 13.4058C60.7954 13.3779 60.7922 11.7457 60.7922 11.7457C60.7922 11.7457 60.7912 10.0326 56.915 10.0489C53.1834 10.0652 53.0355 8.3844 53.0355 8.3844C53.0355 8.3844 53.0345 6.72214 56.9131 6.72435C60.7916 6.72657 60.7882 4.6944 60.7882 4.6944C60.7882 4.6944 60.7874 3.33963 56.9112 3.36978C53.0349 3.39994 53.0314 1.30304 53.0314 1.30304" stroke="#F17110" stroke-width="2" stroke-miterlimit="10"/>
<path d="M53.0653 58.9231C53.0653 58.9231 53.2059 56.0402 56.9769 55.6123C60.748 55.1845 60.8172 53.9523 60.8172 53.9523C60.8172 53.9523 60.8163 52.2577 56.94 52.2555C53.0638 52.2533 53.0606 50.6211 53.0606 50.6211C53.0606 50.6211 53.1318 48.8663 56.938 48.8685C60.7443 48.8707 60.8134 47.2709 60.8134 47.2709C60.8134 47.2709 60.8125 45.6086 56.9362 45.5741C53.06 45.5395 53.0567 43.8795 53.0567 43.8795C53.0567 43.8795 53.0558 42.2473 56.9342 42.2195C60.8128 42.1916 60.8096 40.5594 60.8096 40.5594C60.8096 40.5594 60.8086 38.8463 56.9323 38.8626C53.2007 38.879 53.0529 37.1982 53.0529 37.1982C53.0529 37.1982 53.0519 35.5358 56.9304 35.538C60.809 35.5403 60.8055 33.4965 60.8055 33.4965C60.8055 33.4965 60.8048 32.1418 56.9285 32.172C53.0523 32.2021 53.0488 30.1053 53.0488 30.1053" stroke="#F17110" stroke-width="2" stroke-miterlimit="10"/>
<path d="M53.0818 87.7241C53.0818 87.7241 53.2224 84.8413 56.9934 84.4134C60.7645 83.9855 60.8337 82.7441 60.8337 82.7441C60.8337 82.7441 60.8328 81.0495 56.9565 81.0473C53.0803 81.045 53.077 79.4128 53.077 79.4128C53.077 79.4128 53.1483 77.6581 56.9545 77.6603C60.7608 77.6625 60.8299 76.0627 60.8299 76.0627C60.8299 76.0627 60.829 74.4004 56.9526 74.3659C53.0764 74.3312 53.0732 72.6713 53.0732 72.6713C53.0732 72.6713 53.0722 71.0391 56.9507 71.0113C60.8293 70.9834 60.8261 69.3512 60.8261 69.3512C60.8261 69.3512 60.8251 67.6381 56.9488 67.6544C53.2172 67.6707 53.0694 65.9899 53.0694 65.9899C53.0694 65.9899 53.0684 64.3277 56.9469 64.3299C60.8255 64.3321 60.822 62.2999 60.822 62.2999C60.822 62.2999 60.8213 60.9452 56.945 60.9753C53.0688 61.0055 53.0653 58.927 53.0653 58.927" stroke="#F17110" stroke-width="2" stroke-miterlimit="10"/>
<path d="M53.0973 116.532C53.0973 116.532 53.2379 113.647 57.009 113.219C60.78 112.791 60.8493 111.559 60.8493 111.559C60.8493 111.559 60.8483 109.864 56.9721 109.862C53.0958 109.86 53.0925 108.228 53.0925 108.228C53.0925 108.228 53.1638 106.473 56.9701 106.475C60.7764 106.477 60.8454 104.878 60.8454 104.878C60.8454 104.878 60.8445 103.215 56.9683 103.183C53.0919 103.151 53.0887 101.486 53.0887 101.486C53.0887 101.486 53.0878 99.854 56.9663 99.8261C60.8448 99.7983 60.8416 98.1661 60.8416 98.1661C60.8416 98.1661 60.8406 96.4529 56.9644 96.4692C53.2328 96.4856 53.0849 94.8047 53.0849 94.8047C53.0849 94.8047 53.0839 93.1425 56.9625 93.1447C60.841 93.1469 60.8376 91.1148 60.8376 91.1148C60.8376 91.1148 60.8368 89.7599 56.9606 89.7901C53.0843 89.8202 53.0808 87.7234 53.0808 87.7234" stroke="#F17110" stroke-width="2" stroke-miterlimit="10"/>
<path d="M28.4048 119.035L45.5676 89.9935L28.3709 59.855L45.5337 30.8135L28.3377 1.75" stroke="#F17110" stroke-width="4" stroke-miterlimit="10"/>
<path d="M86.5089 118.838L69.3128 89.7766L86.475 59.6577L69.279 30.5965L86.4418 1.55266" stroke="#F17110" stroke-width="4" stroke-miterlimit="10"/>
<path d="M0.224243 1.50342L11.3072 1.50975L29.8211 30.8421L18.7359 30.8358L0.224243 1.50342Z" fill="#F17110"/>
<path d="M29.8211 30.8422L18.7359 30.8359L0.257792 60.1471L11.3407 60.1534L29.8211 30.8422Z" fill="#F17110"/>
<path d="M0.257812 60.1491L11.3407 60.1555L29.8546 89.4856L18.7694 89.4792L0.257812 60.1491Z" fill="#F17110"/>
<path d="M29.8556 89.484L18.7703 89.4777L0.292287 118.789L11.3752 118.795L29.8556 89.484Z" fill="#F17110"/>
<path d="M113.365 1.33753L102.281 1.3312L83.8036 30.6425L94.8866 30.6489L113.365 1.33753Z" fill="#F17110"/>
<path d="M83.8026 30.6444L94.8855 30.6508L113.397 59.9832L102.314 59.9768L83.8026 30.6444Z" fill="#F17110"/>
<path d="M113.397 59.9793L102.314 59.973L83.8362 89.282L94.919 89.2883L113.397 59.9793Z" fill="#F17110"/>
<path d="M83.8362 89.2863L94.9191 89.2926L113.431 118.625L102.347 118.619L83.8362 89.2863Z" fill="#F17110"/>
<path d="M6.36237 130.303L107.606 130.361C107.606 130.361 107.309 179.276 57.012 179.299C6.71457 179.321 6.36237 130.303 6.36237 130.303Z" stroke="#F17110" stroke-width="9" stroke-miterlimit="10"/>
</svg>
