<svg width="113" height="184" viewBox="0 0 113 184" fill="none" xmlns="http://www.w3.org/2000/svg">
<path d="M52.7397 29.7996C52.7397 29.7996 52.8818 26.9174 56.6482 26.4875C60.4146 26.0576 60.4845 24.8257 60.4845 24.8257C60.4845 24.8257 60.4845 23.1315 56.6133 23.1315C52.742 23.1315 52.7397 21.4997 52.7397 21.4997C52.7397 21.4997 52.8119 19.7454 56.6133 19.7454C60.4146 19.7454 60.4845 18.146 60.4845 18.146C60.4845 18.146 60.4845 16.4841 56.6133 16.4518C52.742 16.4194 52.7397 14.7599 52.7397 14.7599C52.7397 14.7599 52.7397 13.1281 56.6133 13.098C60.4868 13.068 60.4845 11.4362 60.4845 11.4362C60.4845 11.4362 60.4845 9.72352 56.6133 9.74201C52.8865 9.7605 52.7397 8.08017 52.7397 8.08017C52.7397 8.08017 52.7397 6.41834 56.6133 6.41834C60.4868 6.41834 60.4845 4.38669 60.4845 4.38669C60.4845 4.38669 60.4845 3.03226 56.6133 3.06462C52.742 3.09697 52.7397 1.00061 52.7397 1.00061" stroke="#F17110" stroke-width="2" stroke-miterlimit="10"/>
<path d="M52.7402 58.6055C52.7402 58.6055 52.8823 55.7233 56.6487 55.2934C60.4151 54.8635 60.485 53.6315 60.485 53.6315C60.485 53.6315 60.485 51.9373 56.6137 51.9373C52.7425 51.9373 52.7402 50.3055 52.7402 50.3055C52.7402 50.3055 52.8124 48.5512 56.6137 48.5512C60.4151 48.5512 60.485 46.9518 60.485 46.9518C60.485 46.9518 60.485 45.29 56.6137 45.2576C52.7425 45.2253 52.7402 43.5657 52.7402 43.5657C52.7402 43.5657 52.7402 41.934 56.6137 41.9039C60.4873 41.8739 60.485 40.2421 60.485 40.2421C60.485 40.2421 60.485 38.5294 56.6137 38.5479C52.8869 38.5664 52.7402 36.886 52.7402 36.886C52.7402 36.886 52.7402 35.2242 56.6137 35.2242C60.4873 35.2242 60.485 33.181 60.485 33.181C60.485 33.181 60.485 31.8266 56.6137 31.8589C52.7425 31.8913 52.7402 29.7949 52.7402 29.7949" stroke="#F17110" stroke-width="2" stroke-miterlimit="10"/>
<path d="M52.7398 87.399C52.7398 87.399 52.8819 84.5168 56.6483 84.0869C60.4147 83.657 60.4846 82.4158 60.4846 82.4158C60.4846 82.4158 60.4846 80.7216 56.6134 80.7216C52.7421 80.7216 52.7398 79.0898 52.7398 79.0898C52.7398 79.0898 52.812 77.3355 56.6134 77.3355C60.4147 77.3355 60.4846 75.7361 60.4846 75.7361C60.4846 75.7361 60.4846 74.0743 56.6134 74.0419C52.7421 74.0095 52.7398 72.35 52.7398 72.35C52.7398 72.35 52.7398 70.7182 56.6134 70.6882C60.4869 70.6581 60.4846 69.0264 60.4846 69.0264C60.4846 69.0264 60.4846 67.3137 56.6134 67.3322C52.8866 67.3506 52.7398 65.6703 52.7398 65.6703C52.7398 65.6703 52.7398 64.0085 56.6134 64.0085C60.4869 64.0085 60.4846 61.9768 60.4846 61.9768C60.4846 61.9768 60.4846 60.6224 56.6134 60.6548C52.7421 60.6871 52.7398 58.6093 52.7398 58.6093" stroke="#F17110" stroke-width="2" stroke-miterlimit="10"/>
<path d="M52.7395 116.201C52.7395 116.201 52.8816 113.316 56.648 112.886C60.4144 112.456 60.4843 111.224 60.4843 111.224C60.4843 111.224 60.4843 109.53 56.6131 109.53C52.7419 109.53 52.7395 107.898 52.7395 107.898C52.7395 107.898 52.8117 106.144 56.6131 106.144C60.4144 106.144 60.4843 104.545 60.4843 104.545C60.4843 104.545 60.4843 102.883 56.6131 102.853C52.7419 102.823 52.7395 101.158 52.7395 101.158C52.7395 101.158 52.7395 99.5267 56.6131 99.4967C60.4867 99.4666 60.4843 97.8348 60.4843 97.8348C60.4843 97.8348 60.4843 96.1221 56.6131 96.1406C52.8863 96.1591 52.7395 94.4788 52.7395 94.4788C52.7395 94.4788 52.7395 92.817 56.6131 92.817C60.4867 92.817 60.4843 90.7853 60.4843 90.7853C60.4843 90.7853 60.4843 89.4309 56.6131 89.4632C52.7419 89.4956 52.7395 87.3992 52.7395 87.3992" stroke="#F17110" stroke-width="2" stroke-miterlimit="10"/>
<path d="M28.0774 118.716L45.2347 89.6724L28.0774 59.5513L45.2347 30.5073L28.0774 1.461" stroke="#F17110" stroke-width="4" stroke-miterlimit="10"/>
<path d="M86.1069 118.486L68.9496 89.4419L86.1069 59.3208L68.9496 30.2768L86.1069 1.23053" stroke="#F17110" stroke-width="4" stroke-miterlimit="10"/>
<path d="M0 1.23071H11.0686L29.542 30.5451H18.471L0 1.23071Z" fill="#F17110"/>
<path d="M29.5424 30.5457H18.4714L0.000427246 59.8601H11.0691L29.5424 30.5457Z" fill="#F17110"/>
<path d="M0.00012207 59.8621H11.0688L29.5421 89.1742H18.4711L0.00012207 59.8621Z" fill="#F17110"/>
<path d="M29.5425 89.1728H18.4716L0.000549316 118.487H11.0692L29.5425 89.1728Z" fill="#F17110"/>
<path d="M112.994 1H101.926L83.4547 30.3144H94.5233L112.994 1Z" fill="#F17110"/>
<path d="M83.4543 30.3164H94.523L112.994 59.6308H101.925L83.4543 30.3164Z" fill="#F17110"/>
<path d="M112.994 59.6271H101.925L83.454 88.9392H94.5227L112.994 59.6271Z" fill="#F17110"/>
<path d="M83.4545 88.9435H94.5231L112.994 118.258H101.925L83.4545 88.9435Z" fill="#F17110"/>
<path d="M6.05624 129.995H107.169C107.169 129.995 106.846 178.898 56.6128 178.948C6.38001 178.999 6.05624 129.995 6.05624 129.995Z" stroke="#F17110" stroke-width="9" stroke-miterlimit="10"/>
</svg>
